<mxfile host="app.diagrams.net" agent="Mozilla/5.0 (Macintosh; Intel Mac OS X 10_15_7) AppleWebKit/537.36 (KHTML, like Gecko) Chrome/128.0.0.0 Safari/537.36" version="26.0.16">
  <diagram name="Page-1" id="feuuNHi3xm2s7LAIoNlY">
    <mxGraphModel dx="2089" dy="747" grid="0" gridSize="10" guides="1" tooltips="1" connect="1" arrows="1" fold="1" page="1" pageScale="1" pageWidth="850" pageHeight="1100" math="0" shadow="0">
      <root>
        <mxCell id="0" />
        <mxCell id="1" parent="0" />
        <mxCell id="ie5FQKXJryd64FPWyDK3-2" value="&lt;h1 style=&quot;margin-top: 0px;&quot;&gt;Air Plane Reservation App&lt;/h1&gt;&lt;p&gt;&lt;br&gt;&lt;/p&gt;" style="text;html=1;whiteSpace=wrap;overflow=hidden;rounded=0;" vertex="1" parent="1">
          <mxGeometry x="265" y="46" width="321" height="48" as="geometry" />
        </mxCell>
        <mxCell id="ie5FQKXJryd64FPWyDK3-4" value="" style="ellipse;whiteSpace=wrap;html=1;" vertex="1" parent="1">
          <mxGeometry x="156" y="158" width="120" height="80" as="geometry" />
        </mxCell>
        <mxCell id="ie5FQKXJryd64FPWyDK3-5" value="Login" style="text;html=1;align=center;verticalAlign=middle;whiteSpace=wrap;rounded=0;" vertex="1" parent="1">
          <mxGeometry x="186" y="183" width="60" height="30" as="geometry" />
        </mxCell>
        <mxCell id="ie5FQKXJryd64FPWyDK3-6" value="" style="ellipse;whiteSpace=wrap;html=1;" vertex="1" parent="1">
          <mxGeometry x="571" y="120" width="120" height="53" as="geometry" />
        </mxCell>
        <mxCell id="ie5FQKXJryd64FPWyDK3-7" value="Verify password" style="text;html=1;align=center;verticalAlign=middle;whiteSpace=wrap;rounded=0;" vertex="1" parent="1">
          <mxGeometry x="601" y="132" width="60" height="30" as="geometry" />
        </mxCell>
        <mxCell id="ie5FQKXJryd64FPWyDK3-12" value="Passenger" style="shape=umlActor;verticalLabelPosition=bottom;verticalAlign=top;html=1;outlineConnect=0;" vertex="1" parent="1">
          <mxGeometry x="-80" y="271" width="30" height="60" as="geometry" />
        </mxCell>
        <mxCell id="ie5FQKXJryd64FPWyDK3-14" value="" style="ellipse;whiteSpace=wrap;html=1;" vertex="1" parent="1">
          <mxGeometry x="564" y="191" width="131" height="53" as="geometry" />
        </mxCell>
        <mxCell id="ie5FQKXJryd64FPWyDK3-15" value="Display Login Error" style="text;html=1;align=center;verticalAlign=middle;whiteSpace=wrap;rounded=0;" vertex="1" parent="1">
          <mxGeometry x="597.5" y="202.5" width="64" height="30" as="geometry" />
        </mxCell>
        <mxCell id="ie5FQKXJryd64FPWyDK3-16" value="" style="endArrow=none;html=1;rounded=0;exitX=1;exitY=0.3333333333333333;exitDx=0;exitDy=0;exitPerimeter=0;" edge="1" parent="1" source="ie5FQKXJryd64FPWyDK3-12" target="ie5FQKXJryd64FPWyDK3-4">
          <mxGeometry width="50" height="50" relative="1" as="geometry">
            <mxPoint x="400" y="295" as="sourcePoint" />
            <mxPoint x="450" y="245" as="targetPoint" />
          </mxGeometry>
        </mxCell>
        <mxCell id="ie5FQKXJryd64FPWyDK3-17" value="" style="html=1;labelBackgroundColor=#ffffff;startArrow=none;startFill=0;startSize=6;endArrow=classic;endFill=1;endSize=6;jettySize=auto;orthogonalLoop=1;strokeWidth=1;dashed=1;fontSize=14;rounded=0;exitX=1.017;exitY=0.413;exitDx=0;exitDy=0;exitPerimeter=0;entryX=0.008;entryY=0.377;entryDx=0;entryDy=0;entryPerimeter=0;" edge="1" parent="1" source="ie5FQKXJryd64FPWyDK3-4" target="ie5FQKXJryd64FPWyDK3-6">
          <mxGeometry width="60" height="60" relative="1" as="geometry">
            <mxPoint x="395" y="300" as="sourcePoint" />
            <mxPoint x="455" y="240" as="targetPoint" />
          </mxGeometry>
        </mxCell>
        <mxCell id="ie5FQKXJryd64FPWyDK3-18" value="" style="html=1;labelBackgroundColor=#ffffff;startArrow=none;startFill=0;startSize=6;endArrow=classic;endFill=1;endSize=6;jettySize=auto;orthogonalLoop=1;strokeWidth=1;dashed=1;fontSize=14;rounded=0;entryX=0.967;entryY=0.713;entryDx=0;entryDy=0;entryPerimeter=0;exitX=0;exitY=0.5;exitDx=0;exitDy=0;" edge="1" parent="1" source="ie5FQKXJryd64FPWyDK3-14" target="ie5FQKXJryd64FPWyDK3-4">
          <mxGeometry width="60" height="60" relative="1" as="geometry">
            <mxPoint x="400" y="290" as="sourcePoint" />
            <mxPoint x="460" y="230" as="targetPoint" />
          </mxGeometry>
        </mxCell>
        <mxCell id="ie5FQKXJryd64FPWyDK3-19" value="&amp;lt;include&amp;gt;" style="text;html=1;align=center;verticalAlign=middle;whiteSpace=wrap;rounded=0;rotation=-5;" vertex="1" parent="1">
          <mxGeometry x="395" y="140" width="60" height="30" as="geometry" />
        </mxCell>
        <mxCell id="ie5FQKXJryd64FPWyDK3-20" value="&amp;lt;extend&amp;gt;" style="text;html=1;align=center;verticalAlign=middle;whiteSpace=wrap;rounded=0;" vertex="1" parent="1">
          <mxGeometry x="404" y="191" width="60" height="30" as="geometry" />
        </mxCell>
        <mxCell id="ie5FQKXJryd64FPWyDK3-21" value="System&amp;nbsp;&lt;div&gt;Administrator&lt;/div&gt;" style="shape=umlActor;verticalLabelPosition=bottom;verticalAlign=top;html=1;outlineConnect=0;" vertex="1" parent="1">
          <mxGeometry x="-80" y="453" width="30" height="60" as="geometry" />
        </mxCell>
        <mxCell id="ie5FQKXJryd64FPWyDK3-22" value="Customer&lt;div&gt;Service&lt;/div&gt;" style="shape=umlActor;verticalLabelPosition=bottom;verticalAlign=top;html=1;outlineConnect=0;" vertex="1" parent="1">
          <mxGeometry x="-80" y="670" width="30" height="60" as="geometry" />
        </mxCell>
        <mxCell id="ie5FQKXJryd64FPWyDK3-23" value="Bank" style="shape=umlActor;verticalLabelPosition=bottom;verticalAlign=top;html=1;outlineConnect=0;" vertex="1" parent="1">
          <mxGeometry x="907" y="453" width="30" height="60" as="geometry" />
        </mxCell>
        <mxCell id="ie5FQKXJryd64FPWyDK3-24" value="" style="ellipse;whiteSpace=wrap;html=1;" vertex="1" parent="1">
          <mxGeometry x="156" y="275" width="120" height="80" as="geometry" />
        </mxCell>
        <mxCell id="ie5FQKXJryd64FPWyDK3-25" value="" style="ellipse;whiteSpace=wrap;html=1;" vertex="1" parent="1">
          <mxGeometry x="156" y="393" width="120" height="80" as="geometry" />
        </mxCell>
        <mxCell id="ie5FQKXJryd64FPWyDK3-26" value="" style="ellipse;whiteSpace=wrap;html=1;" vertex="1" parent="1">
          <mxGeometry x="156" y="503" width="120" height="80" as="geometry" />
        </mxCell>
        <mxCell id="ie5FQKXJryd64FPWyDK3-27" value="" style="ellipse;whiteSpace=wrap;html=1;" vertex="1" parent="1">
          <mxGeometry x="156" y="607" width="120" height="80" as="geometry" />
        </mxCell>
        <mxCell id="ie5FQKXJryd64FPWyDK3-28" value="" style="ellipse;whiteSpace=wrap;html=1;" vertex="1" parent="1">
          <mxGeometry x="156" y="716" width="120" height="80" as="geometry" />
        </mxCell>
        <mxCell id="ie5FQKXJryd64FPWyDK3-29" value="" style="ellipse;whiteSpace=wrap;html=1;" vertex="1" parent="1">
          <mxGeometry x="81" y="889" width="150" height="117" as="geometry" />
        </mxCell>
        <mxCell id="ie5FQKXJryd64FPWyDK3-30" value="" style="ellipse;whiteSpace=wrap;html=1;" vertex="1" parent="1">
          <mxGeometry x="563" y="281" width="151" height="74" as="geometry" />
        </mxCell>
        <mxCell id="ie5FQKXJryd64FPWyDK3-33" value="" style="html=1;labelBackgroundColor=#ffffff;startArrow=none;startFill=0;startSize=6;endArrow=classic;endFill=1;endSize=6;jettySize=auto;orthogonalLoop=1;strokeWidth=1;dashed=1;fontSize=14;rounded=0;" edge="1" parent="1" target="ie5FQKXJryd64FPWyDK3-24">
          <mxGeometry width="60" height="60" relative="1" as="geometry">
            <mxPoint x="561" y="315" as="sourcePoint" />
            <mxPoint x="464" y="316" as="targetPoint" />
          </mxGeometry>
        </mxCell>
        <mxCell id="ie5FQKXJryd64FPWyDK3-34" value="&amp;lt;extend&amp;gt;" style="text;html=1;align=center;verticalAlign=middle;whiteSpace=wrap;rounded=0;" vertex="1" parent="1">
          <mxGeometry x="400" y="292" width="60" height="30" as="geometry" />
        </mxCell>
        <mxCell id="ie5FQKXJryd64FPWyDK3-35" value="" style="ellipse;whiteSpace=wrap;html=1;" vertex="1" parent="1">
          <mxGeometry x="564" y="365" width="142" height="67" as="geometry" />
        </mxCell>
        <mxCell id="ie5FQKXJryd64FPWyDK3-38" value="" style="html=1;labelBackgroundColor=#ffffff;startArrow=none;startFill=0;startSize=6;endArrow=classic;endFill=1;endSize=6;jettySize=auto;orthogonalLoop=1;strokeWidth=1;dashed=1;fontSize=14;rounded=0;exitX=0;exitY=0.5;exitDx=0;exitDy=0;entryX=0.925;entryY=0.263;entryDx=0;entryDy=0;entryPerimeter=0;" edge="1" parent="1" source="ie5FQKXJryd64FPWyDK3-35" target="ie5FQKXJryd64FPWyDK3-25">
          <mxGeometry width="60" height="60" relative="1" as="geometry">
            <mxPoint x="564" y="399" as="sourcePoint" />
            <mxPoint x="456" y="386" as="targetPoint" />
          </mxGeometry>
        </mxCell>
        <mxCell id="ie5FQKXJryd64FPWyDK3-39" value="&amp;lt;extend&amp;gt;" style="text;html=1;align=center;verticalAlign=middle;whiteSpace=wrap;rounded=0;" vertex="1" parent="1">
          <mxGeometry x="393" y="379" width="60" height="30" as="geometry" />
        </mxCell>
        <mxCell id="ie5FQKXJryd64FPWyDK3-40" value="" style="endArrow=none;html=1;rounded=0;exitX=1;exitY=0.3333333333333333;exitDx=0;exitDy=0;exitPerimeter=0;entryX=0.008;entryY=0.4;entryDx=0;entryDy=0;entryPerimeter=0;" edge="1" parent="1" source="ie5FQKXJryd64FPWyDK3-12" target="ie5FQKXJryd64FPWyDK3-24">
          <mxGeometry width="50" height="50" relative="1" as="geometry">
            <mxPoint x="424" y="549" as="sourcePoint" />
            <mxPoint x="474" y="499" as="targetPoint" />
          </mxGeometry>
        </mxCell>
        <mxCell id="ie5FQKXJryd64FPWyDK3-41" value="" style="endArrow=none;html=1;rounded=0;exitX=1;exitY=0.3333333333333333;exitDx=0;exitDy=0;exitPerimeter=0;entryX=0.025;entryY=0.388;entryDx=0;entryDy=0;entryPerimeter=0;" edge="1" parent="1" source="ie5FQKXJryd64FPWyDK3-12" target="ie5FQKXJryd64FPWyDK3-25">
          <mxGeometry width="50" height="50" relative="1" as="geometry">
            <mxPoint x="394" y="603" as="sourcePoint" />
            <mxPoint x="444" y="553" as="targetPoint" />
          </mxGeometry>
        </mxCell>
        <mxCell id="ie5FQKXJryd64FPWyDK3-42" value="" style="endArrow=none;html=1;rounded=0;exitX=1;exitY=0.3333333333333333;exitDx=0;exitDy=0;exitPerimeter=0;entryX=0;entryY=0.425;entryDx=0;entryDy=0;entryPerimeter=0;" edge="1" parent="1" source="ie5FQKXJryd64FPWyDK3-12" target="ie5FQKXJryd64FPWyDK3-26">
          <mxGeometry width="50" height="50" relative="1" as="geometry">
            <mxPoint x="424" y="549" as="sourcePoint" />
            <mxPoint x="474" y="499" as="targetPoint" />
          </mxGeometry>
        </mxCell>
        <mxCell id="ie5FQKXJryd64FPWyDK3-43" value="" style="endArrow=none;html=1;rounded=0;exitX=1;exitY=0.3333333333333333;exitDx=0;exitDy=0;exitPerimeter=0;entryX=0.017;entryY=0.363;entryDx=0;entryDy=0;entryPerimeter=0;" edge="1" parent="1" source="ie5FQKXJryd64FPWyDK3-12" target="ie5FQKXJryd64FPWyDK3-27">
          <mxGeometry width="50" height="50" relative="1" as="geometry">
            <mxPoint x="424" y="549" as="sourcePoint" />
            <mxPoint x="474" y="499" as="targetPoint" />
          </mxGeometry>
        </mxCell>
        <mxCell id="ie5FQKXJryd64FPWyDK3-44" value="" style="endArrow=none;html=1;rounded=0;exitX=1;exitY=0.3333333333333333;exitDx=0;exitDy=0;exitPerimeter=0;entryX=0;entryY=0;entryDx=0;entryDy=0;" edge="1" parent="1" source="ie5FQKXJryd64FPWyDK3-12" target="ie5FQKXJryd64FPWyDK3-28">
          <mxGeometry width="50" height="50" relative="1" as="geometry">
            <mxPoint x="424" y="549" as="sourcePoint" />
            <mxPoint x="474" y="499" as="targetPoint" />
          </mxGeometry>
        </mxCell>
        <mxCell id="ie5FQKXJryd64FPWyDK3-45" value="" style="endArrow=none;html=1;rounded=0;exitX=1;exitY=0.3333333333333333;exitDx=0;exitDy=0;exitPerimeter=0;entryX=0;entryY=0.5;entryDx=0;entryDy=0;" edge="1" parent="1" source="ie5FQKXJryd64FPWyDK3-21" target="ie5FQKXJryd64FPWyDK3-26">
          <mxGeometry width="50" height="50" relative="1" as="geometry">
            <mxPoint x="424" y="549" as="sourcePoint" />
            <mxPoint x="474" y="499" as="targetPoint" />
          </mxGeometry>
        </mxCell>
        <mxCell id="ie5FQKXJryd64FPWyDK3-46" value="" style="endArrow=none;html=1;rounded=0;exitX=1;exitY=0.3333333333333333;exitDx=0;exitDy=0;exitPerimeter=0;entryX=0;entryY=0.5;entryDx=0;entryDy=0;" edge="1" parent="1" source="ie5FQKXJryd64FPWyDK3-21" target="ie5FQKXJryd64FPWyDK3-27">
          <mxGeometry width="50" height="50" relative="1" as="geometry">
            <mxPoint x="424" y="549" as="sourcePoint" />
            <mxPoint x="474" y="499" as="targetPoint" />
          </mxGeometry>
        </mxCell>
        <mxCell id="ie5FQKXJryd64FPWyDK3-47" value="" style="endArrow=none;html=1;rounded=0;exitX=1;exitY=0.3333333333333333;exitDx=0;exitDy=0;exitPerimeter=0;entryX=0.033;entryY=0.638;entryDx=0;entryDy=0;entryPerimeter=0;" edge="1" parent="1" source="ie5FQKXJryd64FPWyDK3-22" target="ie5FQKXJryd64FPWyDK3-26">
          <mxGeometry width="50" height="50" relative="1" as="geometry">
            <mxPoint x="424" y="549" as="sourcePoint" />
            <mxPoint x="474" y="499" as="targetPoint" />
          </mxGeometry>
        </mxCell>
        <mxCell id="ie5FQKXJryd64FPWyDK3-48" value="" style="endArrow=none;html=1;rounded=0;exitX=1;exitY=0.3333333333333333;exitDx=0;exitDy=0;exitPerimeter=0;entryX=0.042;entryY=0.675;entryDx=0;entryDy=0;entryPerimeter=0;" edge="1" parent="1" source="ie5FQKXJryd64FPWyDK3-22" target="ie5FQKXJryd64FPWyDK3-27">
          <mxGeometry width="50" height="50" relative="1" as="geometry">
            <mxPoint x="424" y="549" as="sourcePoint" />
            <mxPoint x="474" y="499" as="targetPoint" />
          </mxGeometry>
        </mxCell>
        <mxCell id="ie5FQKXJryd64FPWyDK3-49" value="" style="endArrow=none;html=1;rounded=0;exitX=1;exitY=0.3333333333333333;exitDx=0;exitDy=0;exitPerimeter=0;entryX=0.042;entryY=0.663;entryDx=0;entryDy=0;entryPerimeter=0;" edge="1" parent="1" source="ie5FQKXJryd64FPWyDK3-22" target="ie5FQKXJryd64FPWyDK3-28">
          <mxGeometry width="50" height="50" relative="1" as="geometry">
            <mxPoint x="424" y="549" as="sourcePoint" />
            <mxPoint x="474" y="499" as="targetPoint" />
          </mxGeometry>
        </mxCell>
        <mxCell id="ie5FQKXJryd64FPWyDK3-50" value="" style="ellipse;whiteSpace=wrap;html=1;" vertex="1" parent="1">
          <mxGeometry x="707" y="426" width="105" height="54" as="geometry" />
        </mxCell>
        <mxCell id="ie5FQKXJryd64FPWyDK3-51" value="" style="endArrow=none;html=1;rounded=0;entryX=0;entryY=0.3333333333333333;entryDx=0;entryDy=0;entryPerimeter=0;exitX=1;exitY=0.5;exitDx=0;exitDy=0;" edge="1" parent="1" source="ie5FQKXJryd64FPWyDK3-50" target="ie5FQKXJryd64FPWyDK3-23">
          <mxGeometry width="50" height="50" relative="1" as="geometry">
            <mxPoint x="424" y="549" as="sourcePoint" />
            <mxPoint x="474" y="499" as="targetPoint" />
          </mxGeometry>
        </mxCell>
        <mxCell id="ie5FQKXJryd64FPWyDK3-52" value="" style="html=1;labelBackgroundColor=#ffffff;startArrow=none;startFill=0;startSize=6;endArrow=classic;endFill=1;endSize=6;jettySize=auto;orthogonalLoop=1;strokeWidth=1;dashed=1;fontSize=14;rounded=0;entryX=0;entryY=0.5;entryDx=0;entryDy=0;exitX=1;exitY=0.5;exitDx=0;exitDy=0;" edge="1" parent="1" source="ie5FQKXJryd64FPWyDK3-25" target="ie5FQKXJryd64FPWyDK3-50">
          <mxGeometry width="60" height="60" relative="1" as="geometry">
            <mxPoint x="419" y="554" as="sourcePoint" />
            <mxPoint x="479" y="494" as="targetPoint" />
          </mxGeometry>
        </mxCell>
        <mxCell id="ie5FQKXJryd64FPWyDK3-53" value="&amp;lt;include&amp;gt;" style="text;html=1;align=center;verticalAlign=middle;whiteSpace=wrap;rounded=0;rotation=5;" vertex="1" parent="1">
          <mxGeometry x="455" y="418" width="60" height="30" as="geometry" />
        </mxCell>
        <mxCell id="ie5FQKXJryd64FPWyDK3-54" value="" style="ellipse;whiteSpace=wrap;html=1;" vertex="1" parent="1">
          <mxGeometry x="586" y="503" width="120" height="80" as="geometry" />
        </mxCell>
        <mxCell id="ie5FQKXJryd64FPWyDK3-55" value="" style="html=1;labelBackgroundColor=#ffffff;startArrow=none;startFill=0;startSize=6;endArrow=classic;endFill=1;endSize=6;jettySize=auto;orthogonalLoop=1;strokeWidth=1;dashed=1;fontSize=14;rounded=0;entryX=0;entryY=0.5;entryDx=0;entryDy=0;exitX=1;exitY=0.5;exitDx=0;exitDy=0;" edge="1" parent="1" source="ie5FQKXJryd64FPWyDK3-26" target="ie5FQKXJryd64FPWyDK3-54">
          <mxGeometry width="60" height="60" relative="1" as="geometry">
            <mxPoint x="419" y="554" as="sourcePoint" />
            <mxPoint x="479" y="494" as="targetPoint" />
          </mxGeometry>
        </mxCell>
        <mxCell id="ie5FQKXJryd64FPWyDK3-56" value="&amp;lt;include&amp;gt;" style="text;html=1;align=center;verticalAlign=middle;whiteSpace=wrap;rounded=0;rotation=0;" vertex="1" parent="1">
          <mxGeometry x="408" y="520" width="60" height="30" as="geometry" />
        </mxCell>
        <mxCell id="ie5FQKXJryd64FPWyDK3-57" value="" style="ellipse;whiteSpace=wrap;html=1;" vertex="1" parent="1">
          <mxGeometry x="591" y="609" width="120" height="62" as="geometry" />
        </mxCell>
        <mxCell id="ie5FQKXJryd64FPWyDK3-58" value="" style="html=1;labelBackgroundColor=#ffffff;startArrow=none;startFill=0;startSize=6;endArrow=classic;endFill=1;endSize=6;jettySize=auto;orthogonalLoop=1;strokeWidth=1;dashed=1;fontSize=14;rounded=0;entryX=0;entryY=0.5;entryDx=0;entryDy=0;exitX=1;exitY=0.5;exitDx=0;exitDy=0;" edge="1" parent="1" source="ie5FQKXJryd64FPWyDK3-27" target="ie5FQKXJryd64FPWyDK3-57">
          <mxGeometry width="60" height="60" relative="1" as="geometry">
            <mxPoint x="418" y="762" as="sourcePoint" />
            <mxPoint x="478" y="702" as="targetPoint" />
          </mxGeometry>
        </mxCell>
        <mxCell id="ie5FQKXJryd64FPWyDK3-59" value="&amp;lt;include&amp;gt;" style="text;html=1;align=center;verticalAlign=middle;whiteSpace=wrap;rounded=0;rotation=0;" vertex="1" parent="1">
          <mxGeometry x="390" y="621" width="60" height="30" as="geometry" />
        </mxCell>
        <mxCell id="ie5FQKXJryd64FPWyDK3-60" value="" style="ellipse;whiteSpace=wrap;html=1;" vertex="1" parent="1">
          <mxGeometry x="591" y="716" width="121" height="59" as="geometry" />
        </mxCell>
        <mxCell id="ie5FQKXJryd64FPWyDK3-61" value="" style="html=1;labelBackgroundColor=#ffffff;startArrow=none;startFill=0;startSize=6;endArrow=classic;endFill=1;endSize=6;jettySize=auto;orthogonalLoop=1;strokeWidth=1;dashed=1;fontSize=14;rounded=0;exitX=0;exitY=0.5;exitDx=0;exitDy=0;entryX=1;entryY=0.5;entryDx=0;entryDy=0;" edge="1" parent="1" source="ie5FQKXJryd64FPWyDK3-60" target="ie5FQKXJryd64FPWyDK3-28">
          <mxGeometry width="60" height="60" relative="1" as="geometry">
            <mxPoint x="418" y="762" as="sourcePoint" />
            <mxPoint x="507" y="725" as="targetPoint" />
          </mxGeometry>
        </mxCell>
        <mxCell id="ie5FQKXJryd64FPWyDK3-62" value="&amp;lt;extend&amp;gt;" style="text;html=1;align=center;verticalAlign=middle;whiteSpace=wrap;rounded=0;" vertex="1" parent="1">
          <mxGeometry x="395.5" y="725" width="60" height="30" as="geometry" />
        </mxCell>
        <mxCell id="ie5FQKXJryd64FPWyDK3-63" value="" style="ellipse;whiteSpace=wrap;html=1;" vertex="1" parent="1">
          <mxGeometry x="564" y="872" width="120" height="63" as="geometry" />
        </mxCell>
        <mxCell id="ie5FQKXJryd64FPWyDK3-64" value="" style="ellipse;whiteSpace=wrap;html=1;" vertex="1" parent="1">
          <mxGeometry x="563" y="958" width="120" height="63" as="geometry" />
        </mxCell>
        <mxCell id="ie5FQKXJryd64FPWyDK3-65" value="" style="html=1;labelBackgroundColor=#ffffff;startArrow=none;startFill=0;startSize=6;endArrow=classic;endFill=1;endSize=6;jettySize=auto;orthogonalLoop=1;strokeWidth=1;dashed=1;fontSize=14;rounded=0;entryX=0.973;entryY=0.368;entryDx=0;entryDy=0;entryPerimeter=0;exitX=0;exitY=0.5;exitDx=0;exitDy=0;" edge="1" parent="1" source="ie5FQKXJryd64FPWyDK3-63" target="ie5FQKXJryd64FPWyDK3-29">
          <mxGeometry width="60" height="60" relative="1" as="geometry">
            <mxPoint x="418" y="762" as="sourcePoint" />
            <mxPoint x="478" y="702" as="targetPoint" />
          </mxGeometry>
        </mxCell>
        <mxCell id="ie5FQKXJryd64FPWyDK3-66" value="" style="html=1;labelBackgroundColor=#ffffff;startArrow=none;startFill=0;startSize=6;endArrow=classic;endFill=1;endSize=6;jettySize=auto;orthogonalLoop=1;strokeWidth=1;dashed=1;fontSize=14;rounded=0;entryX=1;entryY=0.5;entryDx=0;entryDy=0;exitX=0;exitY=0.5;exitDx=0;exitDy=0;" edge="1" parent="1" source="ie5FQKXJryd64FPWyDK3-64" target="ie5FQKXJryd64FPWyDK3-29">
          <mxGeometry width="60" height="60" relative="1" as="geometry">
            <mxPoint x="418" y="762" as="sourcePoint" />
            <mxPoint x="478" y="702" as="targetPoint" />
          </mxGeometry>
        </mxCell>
        <mxCell id="ie5FQKXJryd64FPWyDK3-67" value="&amp;lt;extend&amp;gt;" style="text;html=1;align=center;verticalAlign=middle;whiteSpace=wrap;rounded=0;" vertex="1" parent="1">
          <mxGeometry x="383" y="889" width="60" height="30" as="geometry" />
        </mxCell>
        <mxCell id="ie5FQKXJryd64FPWyDK3-68" value="&amp;lt;extend&amp;gt;" style="text;html=1;align=center;verticalAlign=middle;whiteSpace=wrap;rounded=0;" vertex="1" parent="1">
          <mxGeometry x="390" y="946" width="60" height="30" as="geometry" />
        </mxCell>
        <mxCell id="ie5FQKXJryd64FPWyDK3-69" value="" style="whiteSpace=wrap;html=1;aspect=fixed;" vertex="1" parent="1">
          <mxGeometry x="435" y="786" width="80" height="80" as="geometry" />
        </mxCell>
        <mxCell id="ie5FQKXJryd64FPWyDK3-70" value="" style="endArrow=none;dashed=1;html=1;rounded=0;entryX=0.5;entryY=1;entryDx=0;entryDy=0;" edge="1" parent="1" target="ie5FQKXJryd64FPWyDK3-69">
          <mxGeometry width="50" height="50" relative="1" as="geometry">
            <mxPoint x="475" y="908" as="sourcePoint" />
            <mxPoint x="473" y="707" as="targetPoint" />
          </mxGeometry>
        </mxCell>
        <mxCell id="ie5FQKXJryd64FPWyDK3-71" value="" style="endArrow=none;html=1;rounded=0;exitX=0.98;exitY=0.35;exitDx=0;exitDy=0;exitPerimeter=0;entryX=0.027;entryY=0.342;entryDx=0;entryDy=0;entryPerimeter=0;" edge="1" parent="1" source="ie5FQKXJryd64FPWyDK3-29" target="ie5FQKXJryd64FPWyDK3-29">
          <mxGeometry width="50" height="50" relative="1" as="geometry">
            <mxPoint x="423" y="757" as="sourcePoint" />
            <mxPoint x="71" y="937" as="targetPoint" />
            <Array as="points" />
          </mxGeometry>
        </mxCell>
        <mxCell id="ie5FQKXJryd64FPWyDK3-72" value="Search for flights" style="text;html=1;align=center;verticalAlign=middle;whiteSpace=wrap;rounded=0;" vertex="1" parent="1">
          <mxGeometry x="186" y="300" width="60" height="30" as="geometry" />
        </mxCell>
        <mxCell id="ie5FQKXJryd64FPWyDK3-73" value="Book flight" style="text;html=1;align=center;verticalAlign=middle;whiteSpace=wrap;rounded=0;" vertex="1" parent="1">
          <mxGeometry x="186" y="418" width="60" height="30" as="geometry" />
        </mxCell>
        <mxCell id="ie5FQKXJryd64FPWyDK3-74" value="Manage Bookings" style="text;html=1;align=center;verticalAlign=middle;whiteSpace=wrap;rounded=0;" vertex="1" parent="1">
          <mxGeometry x="186" y="528" width="60" height="30" as="geometry" />
        </mxCell>
        <mxCell id="ie5FQKXJryd64FPWyDK3-75" value="Check-in online" style="text;html=1;align=center;verticalAlign=middle;whiteSpace=wrap;rounded=0;" vertex="1" parent="1">
          <mxGeometry x="186" y="632" width="60" height="30" as="geometry" />
        </mxCell>
        <mxCell id="ie5FQKXJryd64FPWyDK3-76" value="View boarding pass" style="text;html=1;align=center;verticalAlign=middle;whiteSpace=wrap;rounded=0;" vertex="1" parent="1">
          <mxGeometry x="175.5" y="741" width="81" height="30" as="geometry" />
        </mxCell>
        <mxCell id="ie5FQKXJryd64FPWyDK3-77" value="Display available flights info" style="text;html=1;align=center;verticalAlign=middle;whiteSpace=wrap;rounded=0;" vertex="1" parent="1">
          <mxGeometry x="584.13" y="303" width="101.75" height="30" as="geometry" />
        </mxCell>
        <mxCell id="ie5FQKXJryd64FPWyDK3-78" value="Choose available seat" style="text;html=1;align=center;verticalAlign=middle;whiteSpace=wrap;rounded=0;" vertex="1" parent="1">
          <mxGeometry x="596.5" y="383.5" width="77" height="30" as="geometry" />
        </mxCell>
        <mxCell id="ie5FQKXJryd64FPWyDK3-79" value="Validate Payment&amp;nbsp;" style="text;html=1;align=center;verticalAlign=middle;whiteSpace=wrap;rounded=0;" vertex="1" parent="1">
          <mxGeometry x="729.5" y="438" width="60" height="30" as="geometry" />
        </mxCell>
        <mxCell id="ie5FQKXJryd64FPWyDK3-80" value="Update flight info data" style="text;html=1;align=center;verticalAlign=middle;whiteSpace=wrap;rounded=0;" vertex="1" parent="1">
          <mxGeometry x="606" y="528" width="80" height="30" as="geometry" />
        </mxCell>
        <mxCell id="ie5FQKXJryd64FPWyDK3-81" value="Validate flight info" style="text;html=1;align=center;verticalAlign=middle;whiteSpace=wrap;rounded=0;" vertex="1" parent="1">
          <mxGeometry x="613.25" y="625" width="75.5" height="30" as="geometry" />
        </mxCell>
        <mxCell id="ie5FQKXJryd64FPWyDK3-82" value="Display flight info" style="text;html=1;align=center;verticalAlign=middle;whiteSpace=wrap;rounded=0;" vertex="1" parent="1">
          <mxGeometry x="609.5" y="730.5" width="84" height="30" as="geometry" />
        </mxCell>
        <mxCell id="ie5FQKXJryd64FPWyDK3-84" value="Set up profile" style="text;html=1;align=center;verticalAlign=middle;whiteSpace=wrap;rounded=0;" vertex="1" parent="1">
          <mxGeometry x="116" y="897" width="80" height="28" as="geometry" />
        </mxCell>
        <mxCell id="ie5FQKXJryd64FPWyDK3-85" value="Extension points&lt;div&gt;Profile Help&lt;/div&gt;&lt;div&gt;Privacy Info&amp;nbsp;&lt;/div&gt;" style="text;html=1;align=center;verticalAlign=middle;whiteSpace=wrap;rounded=0;" vertex="1" parent="1">
          <mxGeometry x="107" y="949" width="98" height="30" as="geometry" />
        </mxCell>
        <mxCell id="ie5FQKXJryd64FPWyDK3-86" value="If user clicks help, go to Profile Help" style="text;html=1;align=center;verticalAlign=middle;whiteSpace=wrap;rounded=0;" vertex="1" parent="1">
          <mxGeometry x="435" y="811" width="81" height="30" as="geometry" />
        </mxCell>
        <mxCell id="ie5FQKXJryd64FPWyDK3-87" value="Go to Profile Help" style="text;html=1;align=center;verticalAlign=middle;whiteSpace=wrap;rounded=0;" vertex="1" parent="1">
          <mxGeometry x="588" y="888.5" width="76" height="30" as="geometry" />
        </mxCell>
        <mxCell id="ie5FQKXJryd64FPWyDK3-89" value="Show Privacy Info" style="text;html=1;align=center;verticalAlign=middle;whiteSpace=wrap;rounded=0;" vertex="1" parent="1">
          <mxGeometry x="590.5" y="974.5" width="67" height="30" as="geometry" />
        </mxCell>
      </root>
    </mxGraphModel>
  </diagram>
</mxfile>
